<mxfile host="app.diagrams.net" agent="Mozilla/5.0 (Macintosh; Intel Mac OS X 10_15_7) AppleWebKit/537.36 (KHTML, like Gecko) Chrome/141.0.0.0 Safari/537.36" version="28.2.5">
  <diagram name="Page-1" id="YHfbvXsyHGZj7FbVzZfL">
    <mxGraphModel dx="1678" dy="969" grid="1" gridSize="10" guides="1" tooltips="1" connect="1" arrows="1" fold="1" page="1" pageScale="1" pageWidth="827" pageHeight="1169" math="0" shadow="0">
      <root>
        <mxCell id="0" />
        <mxCell id="1" parent="0" />
        <mxCell id="vYFf31mlCu3mkxG_AFyE-22" value="identify" style="edgeStyle=orthogonalEdgeStyle;rounded=0;orthogonalLoop=1;jettySize=auto;html=1;exitX=0;exitY=1;exitDx=0;exitDy=0;entryX=0;entryY=0.75;entryDx=0;entryDy=0;" parent="1" source="_YohBtGjaS3fdiYh3aLa-1" target="_YohBtGjaS3fdiYh3aLa-4" edge="1">
          <mxGeometry x="-0.4681" relative="1" as="geometry">
            <Array as="points">
              <mxPoint x="250" y="560" />
              <mxPoint x="20" y="560" />
              <mxPoint x="20" y="1070" />
            </Array>
            <mxPoint as="offset" />
          </mxGeometry>
        </mxCell>
        <mxCell id="_YohBtGjaS3fdiYh3aLa-1" value="Event" style="rounded=0;whiteSpace=wrap;html=1;fillColor=#dae8fc;strokeColor=#6c8ebf;fontStyle=1" parent="1" vertex="1">
          <mxGeometry x="250" y="330" width="520" height="240" as="geometry" />
        </mxCell>
        <mxCell id="_YohBtGjaS3fdiYh3aLa-23" value="discuss" style="edgeStyle=orthogonalEdgeStyle;rounded=0;orthogonalLoop=1;jettySize=auto;html=1;exitX=0;exitY=0.5;exitDx=0;exitDy=0;entryX=0;entryY=0.5;entryDx=0;entryDy=0;" parent="1" source="_YohBtGjaS3fdiYh3aLa-1" target="_YohBtGjaS3fdiYh3aLa-4" edge="1">
          <mxGeometry x="-0.5319" relative="1" as="geometry">
            <mxPoint x="270" y="450" as="sourcePoint" />
            <mxPoint x="270" y="1010" as="targetPoint" />
            <Array as="points">
              <mxPoint x="40" y="450" />
              <mxPoint x="40" y="1010" />
            </Array>
            <mxPoint as="offset" />
          </mxGeometry>
        </mxCell>
        <mxCell id="_YohBtGjaS3fdiYh3aLa-24" value="observe" style="edgeStyle=orthogonalEdgeStyle;rounded=0;orthogonalLoop=1;jettySize=auto;html=1;exitX=0;exitY=0.5;exitDx=0;exitDy=0;entryX=0;entryY=0.25;entryDx=0;entryDy=0;" parent="1" edge="1">
          <mxGeometry x="-0.2778" relative="1" as="geometry">
            <mxPoint x="250" y="130" as="sourcePoint" />
            <mxPoint x="250" y="350" as="targetPoint" />
            <Array as="points">
              <mxPoint x="250" y="140" />
              <mxPoint x="180" y="140" />
              <mxPoint x="180" y="350" />
            </Array>
            <mxPoint as="offset" />
          </mxGeometry>
        </mxCell>
        <mxCell id="_YohBtGjaS3fdiYh3aLa-25" value="attend" style="edgeStyle=orthogonalEdgeStyle;rounded=0;orthogonalLoop=1;jettySize=auto;html=1;exitX=0;exitY=0.25;exitDx=0;exitDy=0;entryX=0;entryY=0;entryDx=0;entryDy=0;" parent="1" source="_YohBtGjaS3fdiYh3aLa-2" target="_YohBtGjaS3fdiYh3aLa-1" edge="1">
          <mxGeometry x="-0.4" relative="1" as="geometry">
            <Array as="points">
              <mxPoint x="210" y="110" />
              <mxPoint x="210" y="330" />
            </Array>
            <mxPoint as="offset" />
          </mxGeometry>
        </mxCell>
        <mxCell id="_YohBtGjaS3fdiYh3aLa-26" value="review" style="edgeStyle=orthogonalEdgeStyle;rounded=0;orthogonalLoop=1;jettySize=auto;html=1;exitX=0;exitY=0.75;exitDx=0;exitDy=0;entryX=0.002;entryY=0.169;entryDx=0;entryDy=0;entryPerimeter=0;" parent="1" source="_YohBtGjaS3fdiYh3aLa-2" target="_YohBtGjaS3fdiYh3aLa-3" edge="1">
          <mxGeometry x="-0.4602" relative="1" as="geometry">
            <mxPoint x="200" y="660" as="targetPoint" />
            <Array as="points">
              <mxPoint x="250" y="170" />
              <mxPoint x="150" y="170" />
              <mxPoint x="150" y="650" />
              <mxPoint x="200" y="650" />
            </Array>
            <mxPoint as="offset" />
          </mxGeometry>
        </mxCell>
        <mxCell id="_YohBtGjaS3fdiYh3aLa-27" value="comment" style="edgeStyle=orthogonalEdgeStyle;rounded=0;orthogonalLoop=1;jettySize=auto;html=1;exitX=0;exitY=1;exitDx=0;exitDy=0;entryX=0;entryY=0;entryDx=0;entryDy=0;" parent="1" source="_YohBtGjaS3fdiYh3aLa-2" edge="1">
          <mxGeometry x="-0.4333" relative="1" as="geometry">
            <mxPoint x="250.00000000000023" y="300.0000000000001" as="sourcePoint" />
            <mxPoint x="250.00000000000023" y="620" as="targetPoint" />
            <Array as="points">
              <mxPoint x="250" y="280" />
              <mxPoint x="90" y="280" />
              <mxPoint x="90" y="620" />
            </Array>
            <mxPoint as="offset" />
          </mxGeometry>
        </mxCell>
        <mxCell id="_YohBtGjaS3fdiYh3aLa-28" value="create" style="edgeStyle=orthogonalEdgeStyle;rounded=0;orthogonalLoop=1;jettySize=auto;html=1;exitX=0;exitY=0.75;exitDx=0;exitDy=0;entryX=-0.004;entryY=0.29;entryDx=0;entryDy=0;entryPerimeter=0;" parent="1" source="_YohBtGjaS3fdiYh3aLa-2" target="_YohBtGjaS3fdiYh3aLa-3" edge="1">
          <mxGeometry x="-0.5477" relative="1" as="geometry">
            <mxPoint x="220" y="730" as="targetPoint" />
            <Array as="points">
              <mxPoint x="120" y="230" />
              <mxPoint x="120" y="680" />
            </Array>
            <mxPoint as="offset" />
          </mxGeometry>
        </mxCell>
        <mxCell id="_YohBtGjaS3fdiYh3aLa-2" value="Person" style="rounded=0;whiteSpace=wrap;html=1;fillColor=#d5e8d4;strokeColor=#82b366;fontStyle=1" parent="1" vertex="1">
          <mxGeometry x="250" y="50" width="520" height="240" as="geometry" />
        </mxCell>
        <mxCell id="_YohBtGjaS3fdiYh3aLa-31" value="extend" style="edgeStyle=orthogonalEdgeStyle;rounded=0;orthogonalLoop=1;jettySize=auto;html=1;exitX=0.75;exitY=1;exitDx=0;exitDy=0;entryX=0.75;entryY=0;entryDx=0;entryDy=0;" parent="1" source="_YohBtGjaS3fdiYh3aLa-3" target="_YohBtGjaS3fdiYh3aLa-4" edge="1">
          <mxGeometry relative="1" as="geometry" />
        </mxCell>
        <mxCell id="_YohBtGjaS3fdiYh3aLa-3" value="Artifact" style="rounded=0;whiteSpace=wrap;html=1;fontStyle=1" parent="1" vertex="1">
          <mxGeometry x="250" y="610" width="520" height="240" as="geometry" />
        </mxCell>
        <mxCell id="_YohBtGjaS3fdiYh3aLa-4" value="Concept" style="rounded=0;whiteSpace=wrap;html=1;fillColor=#ffe6cc;strokeColor=#d79b00;fontStyle=1" parent="1" vertex="1">
          <mxGeometry x="250" y="890" width="520" height="240" as="geometry" />
        </mxCell>
        <mxCell id="_YohBtGjaS3fdiYh3aLa-5" value="Computer_Expert" style="rounded=1;whiteSpace=wrap;html=1;" parent="1" vertex="1">
          <mxGeometry x="250" y="50" width="120" height="60" as="geometry" />
        </mxCell>
        <mxCell id="_YohBtGjaS3fdiYh3aLa-6" value="Domain_Expert" style="rounded=1;whiteSpace=wrap;html=1;" parent="1" vertex="1">
          <mxGeometry x="250" y="110" width="120" height="60" as="geometry" />
        </mxCell>
        <mxCell id="_YohBtGjaS3fdiYh3aLa-7" value="Technical_Advisor" style="rounded=1;whiteSpace=wrap;html=1;" parent="1" vertex="1">
          <mxGeometry x="370" y="50" width="120" height="60" as="geometry" />
        </mxCell>
        <mxCell id="_YohBtGjaS3fdiYh3aLa-8" value="Audience" style="rounded=1;whiteSpace=wrap;html=1;" parent="1" vertex="1">
          <mxGeometry x="530" y="50" width="120" height="60" as="geometry" />
        </mxCell>
        <mxCell id="_YohBtGjaS3fdiYh3aLa-9" value="User" style="rounded=1;whiteSpace=wrap;html=1;" parent="1" vertex="1">
          <mxGeometry x="650" y="50" width="120" height="60" as="geometry" />
        </mxCell>
        <mxCell id="_YohBtGjaS3fdiYh3aLa-10" value="Online_Meeting" style="rounded=1;whiteSpace=wrap;html=1;" parent="1" vertex="1">
          <mxGeometry x="250" y="330" width="120" height="60" as="geometry" />
        </mxCell>
        <mxCell id="_YohBtGjaS3fdiYh3aLa-11" value="Offline_Meeting" style="rounded=1;whiteSpace=wrap;html=1;" parent="1" vertex="1">
          <mxGeometry x="360" y="330" width="120" height="60" as="geometry" />
        </mxCell>
        <mxCell id="_YohBtGjaS3fdiYh3aLa-12" value="Slack_Chat" style="rounded=1;whiteSpace=wrap;html=1;" parent="1" vertex="1">
          <mxGeometry x="650" y="330" width="120" height="60" as="geometry" />
        </mxCell>
        <mxCell id="_YohBtGjaS3fdiYh3aLa-13" value="Email" style="rounded=1;whiteSpace=wrap;html=1;" parent="1" vertex="1">
          <mxGeometry x="530" y="330" width="120" height="60" as="geometry" />
        </mxCell>
        <mxCell id="_YohBtGjaS3fdiYh3aLa-15" value="Notebook" style="rounded=1;whiteSpace=wrap;html=1;" parent="1" vertex="1">
          <mxGeometry x="250" y="610" width="120" height="60" as="geometry" />
        </mxCell>
        <mxCell id="_YohBtGjaS3fdiYh3aLa-16" value="Proposal" style="rounded=1;whiteSpace=wrap;html=1;" parent="1" vertex="1">
          <mxGeometry x="250" y="670" width="120" height="60" as="geometry" />
        </mxCell>
        <mxCell id="_YohBtGjaS3fdiYh3aLa-17" value="Sketch" style="rounded=1;whiteSpace=wrap;html=1;" parent="1" vertex="1">
          <mxGeometry x="370" y="610" width="120" height="60" as="geometry" />
        </mxCell>
        <mxCell id="_YohBtGjaS3fdiYh3aLa-18" value="Visualization" style="rounded=1;whiteSpace=wrap;html=1;" parent="1" vertex="1">
          <mxGeometry x="530" y="610" width="120" height="60" as="geometry" />
        </mxCell>
        <mxCell id="_YohBtGjaS3fdiYh3aLa-19" value="Prototype" style="rounded=1;whiteSpace=wrap;html=1;" parent="1" vertex="1">
          <mxGeometry x="650" y="610" width="120" height="60" as="geometry" />
        </mxCell>
        <mxCell id="_YohBtGjaS3fdiYh3aLa-20" value="Data" style="rounded=1;whiteSpace=wrap;html=1;" parent="1" vertex="1">
          <mxGeometry x="650" y="730" width="120" height="60" as="geometry" />
        </mxCell>
        <mxCell id="_YohBtGjaS3fdiYh3aLa-21" value="Domain_Concept" style="rounded=1;whiteSpace=wrap;html=1;" parent="1" vertex="1">
          <mxGeometry x="530" y="890" width="120" height="60" as="geometry" />
        </mxCell>
        <mxCell id="_YohBtGjaS3fdiYh3aLa-22" value="Technical_Concept" style="rounded=1;whiteSpace=wrap;html=1;" parent="1" vertex="1">
          <mxGeometry x="370" y="890" width="120" height="60" as="geometry" />
        </mxCell>
        <mxCell id="_YohBtGjaS3fdiYh3aLa-29" value="evolve" style="edgeStyle=orthogonalEdgeStyle;rounded=0;orthogonalLoop=1;jettySize=auto;html=1;exitX=0.25;exitY=1;exitDx=0;exitDy=0;entryX=0.5;entryY=1;entryDx=0;entryDy=0;" parent="1" source="_YohBtGjaS3fdiYh3aLa-3" target="_YohBtGjaS3fdiYh3aLa-3" edge="1">
          <mxGeometry relative="1" as="geometry">
            <Array as="points">
              <mxPoint x="380" y="870" />
              <mxPoint x="510" y="870" />
            </Array>
          </mxGeometry>
        </mxCell>
        <mxCell id="_YohBtGjaS3fdiYh3aLa-33" value="validate" style="edgeStyle=orthogonalEdgeStyle;rounded=0;orthogonalLoop=1;jettySize=auto;html=1;exitX=0;exitY=0.5;exitDx=0;exitDy=0;entryX=0;entryY=0.75;entryDx=0;entryDy=0;" parent="1" source="_YohBtGjaS3fdiYh3aLa-3" target="_YohBtGjaS3fdiYh3aLa-3" edge="1">
          <mxGeometry relative="1" as="geometry">
            <Array as="points">
              <mxPoint x="220" y="730" />
              <mxPoint x="220" y="790" />
            </Array>
          </mxGeometry>
        </mxCell>
        <mxCell id="_YohBtGjaS3fdiYh3aLa-34" value="implement" style="edgeStyle=orthogonalEdgeStyle;rounded=0;orthogonalLoop=1;jettySize=auto;html=1;exitX=0.25;exitY=0;exitDx=0;exitDy=0;entryX=0.5;entryY=0;entryDx=0;entryDy=0;" parent="1" source="_YohBtGjaS3fdiYh3aLa-3" target="_YohBtGjaS3fdiYh3aLa-3" edge="1">
          <mxGeometry relative="1" as="geometry">
            <Array as="points">
              <mxPoint x="380" y="590" />
              <mxPoint x="510" y="590" />
            </Array>
          </mxGeometry>
        </mxCell>
        <mxCell id="_YohBtGjaS3fdiYh3aLa-36" value="part_of" style="edgeStyle=orthogonalEdgeStyle;rounded=0;orthogonalLoop=1;jettySize=auto;html=1;entryX=1;entryY=0.5;entryDx=0;entryDy=0;" parent="1" target="_YohBtGjaS3fdiYh3aLa-35" edge="1">
          <mxGeometry relative="1" as="geometry">
            <mxPoint x="250" y="60" as="sourcePoint" />
          </mxGeometry>
        </mxCell>
        <mxCell id="_YohBtGjaS3fdiYh3aLa-35" value="Design_Study" style="ellipse;whiteSpace=wrap;html=1;aspect=fixed;" parent="1" vertex="1">
          <mxGeometry x="120" y="10" width="80" height="80" as="geometry" />
        </mxCell>
        <mxCell id="_YohBtGjaS3fdiYh3aLa-37" value="overlap" style="edgeStyle=orthogonalEdgeStyle;rounded=0;orthogonalLoop=1;jettySize=auto;html=1;exitX=0.25;exitY=0;exitDx=0;exitDy=0;entryX=0.75;entryY=0;entryDx=0;entryDy=0;" parent="1" source="_YohBtGjaS3fdiYh3aLa-1" target="_YohBtGjaS3fdiYh3aLa-1" edge="1">
          <mxGeometry relative="1" as="geometry">
            <Array as="points">
              <mxPoint x="380" y="310" />
              <mxPoint x="640" y="310" />
            </Array>
          </mxGeometry>
        </mxCell>
        <mxCell id="_YohBtGjaS3fdiYh3aLa-38" value="before" style="edgeStyle=orthogonalEdgeStyle;rounded=0;orthogonalLoop=1;jettySize=auto;html=1;exitX=0;exitY=0.25;exitDx=0;exitDy=0;entryX=0;entryY=0.75;entryDx=0;entryDy=0;" parent="1" source="_YohBtGjaS3fdiYh3aLa-1" target="_YohBtGjaS3fdiYh3aLa-1" edge="1">
          <mxGeometry x="-0.3743" relative="1" as="geometry">
            <Array as="points">
              <mxPoint x="230" y="390" />
              <mxPoint x="230" y="510" />
            </Array>
            <mxPoint y="-1" as="offset" />
          </mxGeometry>
        </mxCell>
        <mxCell id="_YohBtGjaS3fdiYh3aLa-39" value="after" style="edgeStyle=orthogonalEdgeStyle;rounded=0;orthogonalLoop=1;jettySize=auto;html=1;exitX=1;exitY=0.25;exitDx=0;exitDy=0;entryX=1;entryY=0.75;entryDx=0;entryDy=0;" parent="1" source="_YohBtGjaS3fdiYh3aLa-1" target="_YohBtGjaS3fdiYh3aLa-1" edge="1">
          <mxGeometry relative="1" as="geometry" />
        </mxCell>
        <mxCell id="vYFf31mlCu3mkxG_AFyE-25" value="to_detect" style="edgeStyle=orthogonalEdgeStyle;rounded=0;orthogonalLoop=1;jettySize=auto;html=1;exitX=1;exitY=0.5;exitDx=0;exitDy=0;entryX=1;entryY=0.5;entryDx=0;entryDy=0;" parent="1" source="vYFf31mlCu3mkxG_AFyE-1" target="_YohBtGjaS3fdiYh3aLa-4" edge="1">
          <mxGeometry relative="1" as="geometry" />
        </mxCell>
        <mxCell id="vYFf31mlCu3mkxG_AFyE-1" value="Tool" style="rounded=1;whiteSpace=wrap;html=1;" parent="1" vertex="1">
          <mxGeometry x="650" y="670" width="120" height="60" as="geometry" />
        </mxCell>
        <mxCell id="vYFf31mlCu3mkxG_AFyE-2" value="Algorithm" style="rounded=1;whiteSpace=wrap;html=1;" parent="1" vertex="1">
          <mxGeometry x="250" y="730" width="120" height="60" as="geometry" />
        </mxCell>
        <mxCell id="vYFf31mlCu3mkxG_AFyE-3" value="Software" style="rounded=1;whiteSpace=wrap;html=1;" parent="1" vertex="1">
          <mxGeometry x="370" y="790" width="120" height="60" as="geometry" />
        </mxCell>
        <mxCell id="vYFf31mlCu3mkxG_AFyE-26" value="for" style="edgeStyle=orthogonalEdgeStyle;rounded=0;orthogonalLoop=1;jettySize=auto;html=1;exitX=0;exitY=0.5;exitDx=0;exitDy=0;entryX=0;entryY=0.5;entryDx=0;entryDy=0;" parent="1" source="vYFf31mlCu3mkxG_AFyE-4" target="_YohBtGjaS3fdiYh3aLa-5" edge="1">
          <mxGeometry x="-0.629" relative="1" as="geometry">
            <mxPoint x="240" y="920" as="sourcePoint" />
            <mxPoint x="240" y="100" as="targetPoint" />
            <Array as="points">
              <mxPoint x="60" y="920" />
              <mxPoint x="60" y="100" />
            </Array>
            <mxPoint as="offset" />
          </mxGeometry>
        </mxCell>
        <mxCell id="vYFf31mlCu3mkxG_AFyE-4" value="Weather_Event" style="rounded=1;whiteSpace=wrap;html=1;" parent="1" vertex="1">
          <mxGeometry x="250" y="890" width="120" height="60" as="geometry" />
        </mxCell>
        <mxCell id="vYFf31mlCu3mkxG_AFyE-5" value="Task" style="rounded=1;whiteSpace=wrap;html=1;" parent="1" vertex="1">
          <mxGeometry x="650" y="890" width="120" height="60" as="geometry" />
        </mxCell>
        <mxCell id="vYFf31mlCu3mkxG_AFyE-28" value="in" style="edgeStyle=orthogonalEdgeStyle;rounded=0;orthogonalLoop=1;jettySize=auto;html=1;entryX=1;entryY=0;entryDx=0;entryDy=0;" parent="1" target="vYFf31mlCu3mkxG_AFyE-13" edge="1">
          <mxGeometry x="-0.25" relative="1" as="geometry">
            <mxPoint x="770" y="930" as="sourcePoint" />
            <Array as="points">
              <mxPoint x="770" y="930" />
              <mxPoint x="810" y="930" />
              <mxPoint x="810" y="1070" />
            </Array>
            <mxPoint as="offset" />
          </mxGeometry>
        </mxCell>
        <mxCell id="vYFf31mlCu3mkxG_AFyE-6" value="Framework" style="rounded=1;whiteSpace=wrap;html=1;" parent="1" vertex="1">
          <mxGeometry x="650" y="950" width="120" height="60" as="geometry" />
        </mxCell>
        <mxCell id="vYFf31mlCu3mkxG_AFyE-7" value="Development" style="rounded=1;whiteSpace=wrap;html=1;" parent="1" vertex="1">
          <mxGeometry x="250" y="450" width="120" height="60" as="geometry" />
        </mxCell>
        <mxCell id="vYFf31mlCu3mkxG_AFyE-8" value="Testing" style="rounded=1;whiteSpace=wrap;html=1;" parent="1" vertex="1">
          <mxGeometry x="250" y="510" width="120" height="60" as="geometry" />
        </mxCell>
        <mxCell id="vYFf31mlCu3mkxG_AFyE-9" value="Release" style="rounded=1;whiteSpace=wrap;html=1;" parent="1" vertex="1">
          <mxGeometry x="370" y="510" width="120" height="60" as="geometry" />
        </mxCell>
        <mxCell id="vYFf31mlCu3mkxG_AFyE-10" value="Design_Concept" style="rounded=1;whiteSpace=wrap;html=1;" parent="1" vertex="1">
          <mxGeometry x="250" y="950" width="120" height="60" as="geometry" />
        </mxCell>
        <mxCell id="vYFf31mlCu3mkxG_AFyE-33" value="related_to" style="edgeStyle=orthogonalEdgeStyle;rounded=0;orthogonalLoop=1;jettySize=auto;html=1;exitX=0.75;exitY=1;exitDx=0;exitDy=0;" parent="1" source="vYFf31mlCu3mkxG_AFyE-13" edge="1">
          <mxGeometry relative="1" as="geometry">
            <mxPoint x="620" y="1130.1428571428573" as="targetPoint" />
            <Array as="points">
              <mxPoint x="740" y="1150" />
              <mxPoint x="620" y="1150" />
            </Array>
          </mxGeometry>
        </mxCell>
        <mxCell id="vYFf31mlCu3mkxG_AFyE-13" value="Priority" style="rounded=1;whiteSpace=wrap;html=1;" parent="1" vertex="1">
          <mxGeometry x="650" y="1070" width="120" height="60" as="geometry" />
        </mxCell>
        <mxCell id="vYFf31mlCu3mkxG_AFyE-14" value="Timeline" style="rounded=1;whiteSpace=wrap;html=1;" parent="1" vertex="1">
          <mxGeometry x="650" y="1010" width="120" height="60" as="geometry" />
        </mxCell>
        <mxCell id="vYFf31mlCu3mkxG_AFyE-15" value="System" style="rounded=1;whiteSpace=wrap;html=1;" parent="1" vertex="1">
          <mxGeometry x="520" y="790" width="120" height="60" as="geometry" />
        </mxCell>
        <mxCell id="vYFf31mlCu3mkxG_AFyE-16" value="Problem" style="rounded=1;whiteSpace=wrap;html=1;" parent="1" vertex="1">
          <mxGeometry x="370" y="1070" width="120" height="60" as="geometry" />
        </mxCell>
        <mxCell id="vYFf31mlCu3mkxG_AFyE-17" value="Solution" style="rounded=1;whiteSpace=wrap;html=1;" parent="1" vertex="1">
          <mxGeometry x="370" y="1010" width="120" height="60" as="geometry" />
        </mxCell>
        <mxCell id="vYFf31mlCu3mkxG_AFyE-19" value="State" style="rounded=1;whiteSpace=wrap;html=1;" parent="1" vertex="1">
          <mxGeometry x="250" y="1070" width="120" height="60" as="geometry" />
        </mxCell>
        <mxCell id="vYFf31mlCu3mkxG_AFyE-20" value="Urban_Infrastructure" style="rounded=1;whiteSpace=wrap;html=1;" parent="1" vertex="1">
          <mxGeometry x="530" y="950" width="120" height="60" as="geometry" />
        </mxCell>
        <mxCell id="vYFf31mlCu3mkxG_AFyE-21" value="Outcome" style="rounded=1;whiteSpace=wrap;html=1;" parent="1" vertex="1">
          <mxGeometry x="250" y="1010" width="120" height="60" as="geometry" />
        </mxCell>
        <mxCell id="vYFf31mlCu3mkxG_AFyE-31" value="condition" style="edgeStyle=orthogonalEdgeStyle;rounded=0;orthogonalLoop=1;jettySize=auto;html=1;exitX=0.5;exitY=1;exitDx=0;exitDy=0;entryX=0.5;entryY=1;entryDx=0;entryDy=0;" parent="1" source="vYFf31mlCu3mkxG_AFyE-27" target="vYFf31mlCu3mkxG_AFyE-19" edge="1">
          <mxGeometry relative="1" as="geometry" />
        </mxCell>
        <mxCell id="vYFf31mlCu3mkxG_AFyE-27" value="Location" style="rounded=1;whiteSpace=wrap;html=1;" parent="1" vertex="1">
          <mxGeometry x="530" y="1070" width="120" height="60" as="geometry" />
        </mxCell>
        <mxCell id="vYFf31mlCu3mkxG_AFyE-29" value="develop" style="edgeStyle=orthogonalEdgeStyle;rounded=0;orthogonalLoop=1;jettySize=auto;html=1;exitX=0.5;exitY=0;exitDx=0;exitDy=0;entryX=0.113;entryY=1.013;entryDx=0;entryDy=0;entryPerimeter=0;" parent="1" source="vYFf31mlCu3mkxG_AFyE-4" target="_YohBtGjaS3fdiYh3aLa-3" edge="1">
          <mxGeometry relative="1" as="geometry" />
        </mxCell>
        <mxCell id="vYFf31mlCu3mkxG_AFyE-30" value="using" style="edgeStyle=orthogonalEdgeStyle;rounded=0;orthogonalLoop=1;jettySize=auto;html=1;exitX=0.5;exitY=0;exitDx=0;exitDy=0;entryX=0.885;entryY=1.007;entryDx=0;entryDy=0;entryPerimeter=0;" parent="1" source="vYFf31mlCu3mkxG_AFyE-5" target="_YohBtGjaS3fdiYh3aLa-3" edge="1">
          <mxGeometry relative="1" as="geometry" />
        </mxCell>
        <mxCell id="uil35yUp4J-_nAdF0Ysi-1" value="Report" style="rounded=1;whiteSpace=wrap;html=1;" vertex="1" parent="1">
          <mxGeometry x="250" y="790" width="120" height="60" as="geometry" />
        </mxCell>
        <mxCell id="uil35yUp4J-_nAdF0Ysi-2" value="Presentation" style="rounded=1;whiteSpace=wrap;html=1;" vertex="1" parent="1">
          <mxGeometry x="370" y="670" width="120" height="60" as="geometry" />
        </mxCell>
      </root>
    </mxGraphModel>
  </diagram>
</mxfile>
